# xmcd
#
# Track frame offsets:
#	182
#	14972
#	26927
#	36290
#	49157
#	62160
#	74580
#	86870
#	99067
#	109135
#	125920
#	138295
#	149722
#	160000
#	169727
#	177800
#
# Disc length: 2505 seconds
#
# Revision: 2
# Processed by: cddbd v1.5.1PL0 Copyright (c) Steve Scherf et al.
# Submitted via: audiograbber 1.83.01
#
DISCID=f209c710
DTITLE=Various Artist - 16 All-Time Country Greats 10
DYEAR=1988
DGENRE=Country
TTITLE0=The Kingston Trio - Tom Doolay
TTITLE1=Jeannie C Riley - Country girl
TTITLE2=Jim Reeves - My Mary
TTITLE3=Patsy Cline - You're stronger than me
TTITLE4=Faron Young - It's four in morning
TTITLE5=Oakridge Boys - You'll never walk alone
TTITLE6=Hank Williams - Lovesick blues
TTITLE7=Gene Autry - South of the border
TTITLE8=Johnny Cash - Straight A's in love
TTITLE9=Boxcar Willie - Take me home
TTITLE10=Charlie Rich - My heart cries for you
TTITLE11=Donna Fargo - The happiest girl in the hole USA
TTITLE12=George Jones - Walk throgh this world with me
TTITLE13=Dave Dudley - Truck drivin' son-of-a-gun
TTITLE14=Roger Miller - Dang me
TTITLE15=Les Paul and Mary Ford - I'm sitting on the top of the world
EXTD=
EXTT0=
EXTT1=
EXTT2=
EXTT3=
EXTT4=
EXTT5=
EXTT6=
EXTT7=
EXTT8=
EXTT9=
EXTT10=
EXTT11=
EXTT12=
EXTT13=
EXTT14=
EXTT15=
PLAYORDER=
